<svg width="32" height="44" viewBox="0 0 32 44" fill="none" xmlns="http://www.w3.org/2000/svg">
  <g filter="url(#filter0_f_74_820)">
    <ellipse cx="16" cy="40" rx="4" ry="2" fill="black" fill-opacity="0.1" />
  </g>
  <mask id="path-2-outside-1_74_820" maskUnits="userSpaceOnUse" x="0" y="0" width="32" height="40" fill="black">
    <rect fill="white" width="32" height="40" />
    <path fill-rule="evenodd" clip-rule="evenodd"
      d="M15.9661 29.6955V38C15.4257 38 14.979 37.5868 14.8876 37.0541C14.0337 32.0734 10.3329 28.978 7.706 27.0151C4.24587 24.4947 2 20.4313 2 15.8478C2 8.19986 8.25279 2 15.966 2C23.6792 2 29.932 8.19986 29.932 15.8478C29.932 20.4289 27.6885 24.4904 24.2315 27.0111C21.6042 28.9738 17.899 32.07 17.0445 37.0541C16.9532 37.5868 16.5065 38 15.9661 38L15.9661 29.6955Z" />
  </mask>
  <path fill-rule="evenodd" clip-rule="evenodd"
    d="M15.9661 29.6955V38C15.4257 38 14.979 37.5868 14.8876 37.0541C14.0337 32.0734 10.3329 28.978 7.706 27.0151C4.24587 24.4947 2 20.4313 2 15.8478C2 8.19986 8.25279 2 15.966 2C23.6792 2 29.932 8.19986 29.932 15.8478C29.932 20.4289 27.6885 24.4904 24.2315 27.0111C21.6042 28.9738 17.899 32.07 17.0445 37.0541C16.9532 37.5868 16.5065 38 15.9661 38L15.9661 29.6955Z"
    fill="#FF6B00" />
  <path
    d="M15.9661 38V39.5H17.4661V38H15.9661ZM14.8876 37.0541L13.4092 37.3076L14.8876 37.0541ZM7.706 27.0151L8.60386 25.8135L8.59654 25.808L8.58917 25.8027L7.706 27.0151ZM24.2315 27.0111L23.3477 25.7991L23.3407 25.8042L23.3337 25.8094L24.2315 27.0111ZM17.0445 37.0541L18.5229 37.3076L17.0445 37.0541ZM15.9661 38H14.4661L14.4661 39.5H15.9661V38ZM14.4661 29.6955V38H17.4661V29.6955H14.4661ZM15.9661 36.5C16.0887 36.5 16.1914 36.549 16.2564 36.6069C16.3179 36.6618 16.354 36.7301 16.3661 36.8006L13.4092 37.3076C13.6117 38.4886 14.6245 39.5 15.9661 39.5V36.5ZM16.3661 36.8006C15.4047 31.1937 11.2499 27.7906 8.60386 25.8135L6.80815 28.2167C9.41596 30.1653 12.6626 32.9531 13.4092 37.3076L16.3661 36.8006ZM0.5 15.8478C0.5 20.9342 2.99444 25.4389 6.82284 28.2275L8.58917 25.8027C5.49731 23.5505 3.5 19.9284 3.5 15.8478H0.5ZM15.966 0.5C7.43641 0.5 0.5 7.35943 0.5 15.8478H3.5C3.5 9.04028 9.06917 3.5 15.966 3.5V0.5ZM31.432 15.8478C31.432 7.35943 24.4956 0.5 15.966 0.5V3.5C22.8628 3.5 28.432 9.04028 28.432 15.8478H31.432ZM25.1152 28.2231C28.9402 25.4341 31.432 20.9315 31.432 15.8478H28.432C28.432 19.9262 26.4368 23.5467 23.3477 25.7991L25.1152 28.2231ZM18.5229 37.3076C19.27 32.95 22.5206 30.1615 25.1292 28.2128L23.3337 25.8094C20.6878 27.786 16.528 31.19 15.5661 36.8006L18.5229 37.3076ZM15.9661 39.5C17.3076 39.5 18.3204 38.4886 18.5229 37.3076L15.5661 36.8006C15.5782 36.7301 15.6142 36.6618 15.6757 36.6069C15.7407 36.549 15.8434 36.5 15.9661 36.5V39.5ZM14.4661 29.6955L14.4661 38H17.4661L17.4661 29.6955H14.4661Z"
    fill="#1D1C19" mask="url(#path-2-outside-1_74_820)" />
  <defs>
    <filter id="filter0_f_74_820" x="10" y="36" width="12" height="8" filterUnits="userSpaceOnUse"
      color-interpolation-filters="sRGB">
      <feFlood flood-opacity="0" result="BackgroundImageFix" />
      <feBlend mode="normal" in="SourceGraphic" in2="BackgroundImageFix" result="shape" />
      <feGaussianBlur stdDeviation="1" result="effect1_foregroundBlur_74_820" />
    </filter>
  </defs>
</svg>