<svg width="25" height="24" viewBox="0 0 25 24" fill="none" xmlns="http://www.w3.org/2000/svg">
<path d="M21.44 11C20.98 6.83 17.67 3.52 13.5 3.06V2C13.5 1.45 13.05 1 12.5 1C11.95 1 11.5 1.45 11.5 2V3.06C7.33 3.52 4.02 6.83 3.56 11H2.5C1.95 11 1.5 11.45 1.5 12C1.5 12.55 1.95 13 2.5 13H3.56C4.02 17.17 7.33 20.48 11.5 20.94V22C11.5 22.55 11.95 23 12.5 23C13.05 23 13.5 22.55 13.5 22V20.94C17.67 20.48 20.98 17.17 21.44 13H22.5C23.05 13 23.5 12.55 23.5 12C23.5 11.45 23.05 11 22.5 11H21.44ZM12.5 19C8.63 19 5.5 15.87 5.5 12C5.5 8.13 8.63 5 12.5 5C16.37 5 19.5 8.13 19.5 12C19.5 15.87 16.37 19 12.5 19Z" fill="#009DFF"/>
</svg>
