<svg width="32" height="44" viewBox="0 0 32 44" fill="none" xmlns="http://www.w3.org/2000/svg">
  <g filter="url(#filter0_f_74_840)">
    <ellipse cx="16" cy="40" rx="4" ry="2" fill="black" fill-opacity="0.1" />
  </g>
  <mask id="path-2-outside-1_74_840" maskUnits="userSpaceOnUse" x="0" y="0" width="32" height="40" fill="black">
    <rect fill="white" width="32" height="40" />
    <path fill-rule="evenodd" clip-rule="evenodd"
      d="M15.9661 29.6955V38C15.4257 38 14.979 37.5868 14.8876 37.0541C14.0337 32.0734 10.3329 28.978 7.706 27.0151C4.24587 24.4947 2 20.4313 2 15.8478C2 8.19986 8.25279 2 15.966 2C23.6792 2 29.932 8.19986 29.932 15.8478C29.932 20.4289 27.6885 24.4904 24.2315 27.0111C21.6042 28.9738 17.899 32.07 17.0445 37.0541C16.9532 37.5868 16.5065 38 15.9661 38L15.9661 29.6955Z" />
  </mask>
  <path fill-rule="evenodd" clip-rule="evenodd"
    d="M15.9661 29.6955V38C15.4257 38 14.979 37.5868 14.8876 37.0541C14.0337 32.0734 10.3329 28.978 7.706 27.0151C4.24587 24.4947 2 20.4313 2 15.8478C2 8.19986 8.25279 2 15.966 2C23.6792 2 29.932 8.19986 29.932 15.8478C29.932 20.4289 27.6885 24.4904 24.2315 27.0111C21.6042 28.9738 17.899 32.07 17.0445 37.0541C16.9532 37.5868 16.5065 38 15.9661 38L15.9661 29.6955Z"
    fill="#FFC499" />
  <path
    d="M15.9661 38V39.5H17.4661V38H15.9661ZM14.8876 37.0541L13.4092 37.3076L14.8876 37.0541ZM7.706 27.0151L8.60386 25.8135L8.59654 25.808L8.58917 25.8027L7.706 27.0151ZM24.2315 27.0111L23.3477 25.7991L23.3407 25.8042L23.3337 25.8094L24.2315 27.0111ZM17.0445 37.0541L18.5229 37.3076L17.0445 37.0541ZM15.9661 38H14.4661L14.4661 39.5H15.9661V38ZM14.4661 29.6955V38H17.4661V29.6955H14.4661ZM15.9661 36.5C16.0887 36.5 16.1914 36.549 16.2564 36.6069C16.3179 36.6618 16.354 36.7301 16.3661 36.8006L13.4092 37.3076C13.6117 38.4886 14.6245 39.5 15.9661 39.5V36.5ZM16.3661 36.8006C15.4047 31.1937 11.2499 27.7906 8.60386 25.8135L6.80815 28.2167C9.41596 30.1653 12.6626 32.9531 13.4092 37.3076L16.3661 36.8006ZM0.5 15.8478C0.5 20.9342 2.99444 25.4389 6.82284 28.2275L8.58917 25.8027C5.49731 23.5505 3.5 19.9284 3.5 15.8478H0.5ZM15.966 0.5C7.43641 0.5 0.5 7.35943 0.5 15.8478H3.5C3.5 9.04028 9.06917 3.5 15.966 3.5V0.5ZM31.432 15.8478C31.432 7.35943 24.4956 0.5 15.966 0.5V3.5C22.8628 3.5 28.432 9.04028 28.432 15.8478H31.432ZM25.1152 28.2231C28.9402 25.4341 31.432 20.9315 31.432 15.8478H28.432C28.432 19.9262 26.4368 23.5467 23.3477 25.7991L25.1152 28.2231ZM18.5229 37.3076C19.27 32.95 22.5206 30.1615 25.1292 28.2128L23.3337 25.8094C20.6878 27.786 16.528 31.19 15.5661 36.8006L18.5229 37.3076ZM15.9661 39.5C17.3076 39.5 18.3204 38.4886 18.5229 37.3076L15.5661 36.8006C15.5782 36.7301 15.6142 36.6618 15.6757 36.6069C15.7407 36.549 15.8434 36.5 15.9661 36.5V39.5ZM14.4661 29.6955L14.4661 38H17.4661L17.4661 29.6955H14.4661Z"
    fill="#1D1C19" mask="url(#path-2-outside-1_74_840)" />
  <path fill-rule="evenodd" clip-rule="evenodd"
    d="M10.3579 13.0213C10.0657 13.4596 9.79548 13.9115 9.54811 14.3754C9.31109 14.5194 9.09017 14.6923 8.89082 14.8916C8.23453 15.5479 7.86584 16.438 7.86584 17.3661C7.86584 18.0583 8.07108 18.7348 8.45561 19.3103C8.84014 19.8858 9.38669 20.3344 10.0261 20.5992C10.6656 20.8641 11.3692 20.9334 12.0481 20.7984C12.7269 20.6633 13.3504 20.33 13.8398 19.8406C14.3293 19.3512 14.6626 18.7277 14.7976 18.0488C14.8858 17.6055 14.8868 17.1515 14.8031 16.7118C14.8088 16.672 14.8142 16.6316 14.8194 16.5906C14.8651 16.2285 14.9046 15.8907 14.9382 15.5756C14.9762 15.5811 15.0151 15.5839 15.0546 15.5839H16.677C16.7166 15.5839 16.7555 15.5811 16.7935 15.5756C16.8272 15.8907 16.8666 16.2285 16.9123 16.5906C16.9175 16.6316 16.9229 16.6719 16.9286 16.7117C16.8449 17.1515 16.8459 17.6054 16.9341 18.0488C17.0691 18.7277 17.4024 19.3512 17.8918 19.8406C18.3813 20.33 19.0048 20.6633 19.6836 20.7984C20.3625 20.9334 21.0661 20.8641 21.7056 20.5992C22.345 20.3344 22.8915 19.8858 23.2761 19.3103C23.6606 18.7348 23.8658 18.0583 23.8658 17.3661C23.8658 16.438 23.4972 15.5479 22.8409 14.8916C22.6415 14.6923 22.4206 14.5195 22.1836 14.3755C21.9362 13.9115 21.666 13.4596 21.3739 13.0213C21.0488 12.3945 20.5416 11.8807 19.919 11.5477C19.2964 11.2147 18.5875 11.078 17.8857 11.1556C17.8577 11.1568 17.8298 11.1578 17.8021 11.1589C17.1781 11.1822 16.6481 11.202 16.639 13.1503H15.0927C15.0836 11.202 14.5536 11.1822 13.9296 11.1589C13.9019 11.1578 13.874 11.1568 13.846 11.1556C13.1442 11.078 12.4353 11.2147 11.8127 11.5477C11.1901 11.8807 10.6829 12.3945 10.3579 13.0213ZM11.4927 19.4752C12.5357 19.4752 13.3811 18.6297 13.3811 17.5867C13.3811 16.5438 12.5357 15.6983 11.4927 15.6983C10.4497 15.6983 9.60424 16.5438 9.60424 17.5867C9.60424 18.6297 10.4497 19.4752 11.4927 19.4752ZM22.1274 17.5867C22.1274 18.6297 21.2819 19.4752 20.239 19.4752C19.196 19.4752 18.3505 18.6297 18.3505 17.5867C18.3505 16.5438 19.196 15.6983 20.239 15.6983C21.2819 15.6983 22.1274 16.5438 22.1274 17.5867Z"
    fill="white" />
  <defs>
    <filter id="filter0_f_74_840" x="10" y="36" width="12" height="8" filterUnits="userSpaceOnUse"
      color-interpolation-filters="sRGB">
      <feFlood flood-opacity="0" result="BackgroundImageFix" />
      <feBlend mode="normal" in="SourceGraphic" in2="BackgroundImageFix" result="shape" />
      <feGaussianBlur stdDeviation="1" result="effect1_foregroundBlur_74_840" />
    </filter>
  </defs>
</svg>